@startuml

title __UTILS's Class Diagram__\n


      class utils.Test {
          + Test()
          {static} + main()
  
  }
  


      class utils.Test.A {
          # name : String
          + A()
          + getName()
  
  }
  


      class utils.Test.B {
          + name : String
          + B()
          + getName()
  
  }
  


      class utils.Test.C {
          + name : String
          + C()
          + Test()
          + getName()
  
  }
  

  utils.Test +-down- utils.Test.A
  utils.Test +-down- utils.Test.B
  utils.Test +-down- utils.Test.C
  utils.Test.B -up-|> utils.Test.A
  utils.Test.C -up-|> utils.Test.B


right footer


PlantUML diagram generated by SketchIt! (https://bitbucket.org/pmesmeur/sketch.it)
For more information about this tool, please contact philippe.mesmeur@gmail.com
endfooter

@enduml
